<?xml version="1.0" standalone="no"?>
<!DOCTYPE svg PUBLIC "-//W3C//DTD SVG 20010904//EN"
 "http://www.w3.org/TR/2001/REC-SVG-20010904/DTD/svg10.dtd">
<svg version="1.0" xmlns="http://www.w3.org/2000/svg"
 width="1024.000000pt" height="1024.000000pt" viewBox="0 0 1024.000000 1024.000000"
 preserveAspectRatio="xMidYMid meet">

<g transform="translate(0.000000,1024.000000) scale(0.100000,-0.100000)"
fill="#000000" stroke="none">
<path d="M5010 9804 c-395 -165 -1372 -586 -3790 -1631 l-805 -348 -7 -715
c-13 -1182 -5 -4639 10 -4673 9 -22 34 -39 105 -72 303 -141 3642 -1569 4386
-1875 l223 -92 127 53 c139 58 2113 904 3616 1551 l960 413 3 2652 c1 1458 -1
2675 -5 2704 l-8 51 -100 45 c-168 75 -698 306 -1120 488 -535 231 -921 400
-1221 535 -137 62 -280 124 -319 137 -80 29 -470 192 -750 313 -424 183 -1193
500 -1211 500 -5 -1 -47 -17 -94 -36z m183 -180 c378 -158 1555 -667 1621
-701 l30 -15 -30 -13 c-343 -150 -2483 -1069 -3289 -1413 l-1081 -462 -149 64
c-206 88 -1381 591 -1482 635 -46 19 -83 38 -83 42 0 4 8 9 18 12 9 3 85 35
167 72 516 229 4164 1791 4213 1804 1 1 31 -11 65 -25z m2094 -903 c82 -37
169 -81 194 -96 l44 -29 -82 -37 c-144 -67 -3756 -1615 -4135 -1773 l-136 -57
-75 25 c-163 55 -397 156 -397 172 0 3 39 23 87 45 166 77 3010 1295 3683
1577 425 178 590 241 637 242 18 0 92 -28 180 -69z m600 -267 c122 -46 502
-204 923 -386 557 -240 676 -296 668 -320 -2 -5 -31 -21 -63 -35 -111 -47
-1532 -652 -2921 -1244 l-1381 -589 -469 199 c-721 305 -1243 536 -1233 545
10 11 1182 515 3219 1387 944 404 1122 478 1148 479 7 0 56 -16 109 -36z
m-6792 -1056 c259 -113 653 -283 878 -378 l407 -173 0 -291 c1 -474 17 -985
32 -1004 25 -31 578 -280 678 -305 30 -8 64 -11 75 -7 49 18 50 24 53 653 2
323 6 587 10 587 7 0 344 -142 1313 -555 l466 -198 6 -735 c8 -880 9 -4372 2
-4372 -3 0 -23 9 -45 20 -41 21 -1158 504 -2985 1292 -600 259 -1160 500
-1245 537 l-155 67 -3 775 c-2 426 0 1568 4 2537 6 1622 8 1763 23 1759 9 -3
227 -97 486 -209z m8562 -2562 l-2 -2309 -600 -257 c-330 -142 -1329 -571
-2220 -953 l-1620 -696 -9 2047 c-4 1126 -5 2273 -1 2549 l7 502 167 71 c287
124 1926 824 2381 1017 522 222 1717 729 1815 770 l70 30 7 -231 c4 -127 7
-1270 5 -2540z m-6952 1871 c61 -25 162 -68 225 -95 l115 -49 0 -541 c0 -387
-3 -544 -11 -552 -13 -13 -89 16 -320 122 l-131 59 -6 262 c-12 451 -9 850 6
844 6 -3 62 -25 122 -50z"/>
<path d="M1100 4225 c-34 -36 -39 -119 -39 -715 0 -569 5 -671 36 -701 57 -57
1922 -856 2046 -876 51 -8 58 9 69 160 10 138 3 1164 -8 1251 l-7 48 -76 35
c-178 82 -1370 586 -1788 757 -89 36 -173 66 -186 66 -13 0 -34 -11 -47 -25z
m287 -251 c59 -26 454 -192 877 -370 422 -178 771 -326 775 -329 8 -8 8 -1111
0 -1119 -5 -5 -572 236 -1319 562 -425 185 -449 196 -456 212 -13 30 -24 491
-19 750 6 274 11 340 25 340 4 0 57 -21 117 -46z"/>
<path d="M7625 6286 c-145 -60 -1161 -495 -1615 -693 l-295 -128 -6 -1000 c-3
-550 -7 -1469 -8 -2042 l-1 -1043 25 -6 c62 -15 160 19 740 261 676 282 1332
568 1353 589 10 9 16 63 22 177 11 206 12 3494 1 3723 -8 167 -8 170 -35 193
-15 13 -32 23 -39 23 -7 -1 -70 -25 -142 -54z m31 -203 c5 -10 10 -856 12
-1879 l3 -1862 -353 -150 c-358 -153 -1007 -426 -1286 -542 -84 -35 -156 -60
-160 -56 -11 11 -13 1302 -5 2596 l8 1155 600 258 c664 286 1157 495 1166 496
4 1 11 -7 15 -16z"/>
<path d="M7090 5409 c-372 -150 -880 -373 -892 -392 -15 -24 -8 -84 13 -111
30 -38 69 -34 212 20 186 71 592 246 775 334 162 78 162 79 162 112 0 48 -44
107 -80 107 -8 0 -94 -31 -190 -70z"/>
<path d="M6815 4791 c-185 -72 -494 -210 -566 -253 -26 -16 -49 -38 -53 -51
-19 -72 6 -117 66 -117 47 0 232 71 538 208 177 79 197 90 214 123 22 40 17
78 -14 109 -29 29 -72 25 -185 -19z"/>
<path d="M7219 4457 c-83 -30 -368 -148 -624 -257 -411 -175 -405 -172 -405
-238 0 -33 31 -78 60 -87 22 -7 373 130 776 301 222 95 319 145 337 175 21 34
-23 109 -72 122 -9 2 -42 -5 -72 -16z"/>
<path d="M6558 3679 c-40 -9 -276 -111 -318 -137 -39 -24 -50 -43 -50 -84 0
-44 35 -88 70 -88 36 0 165 47 260 95 94 47 155 94 165 125 8 27 -21 79 -51
90 -28 11 -25 11 -76 -1z"/>
<path d="M6905 3335 c-126 -34 -653 -279 -678 -316 -22 -31 -22 -102 0 -120
33 -28 94 -14 259 56 87 37 241 107 340 155 171 82 182 89 193 123 10 29 9 42
-3 71 -8 20 -19 36 -25 36 -5 0 -15 2 -23 4 -7 3 -36 -1 -63 -9z"/>
<path d="M7045 2901 c-205 -82 -626 -261 -775 -329 -61 -27 -90 -57 -90 -93 0
-26 33 -77 56 -88 29 -13 64 0 505 182 635 263 688 299 578 391 -17 14 -36 26
-42 26 -7 0 -111 -40 -232 -89z"/>
</g>
</svg>
