<?xml version="1.0" encoding="utf-8"?>
<svg version="1.1" x="0px" y="0px" viewBox="0 0 1920 1080" style="enable-background:new 0 0 1920 1080;" xmlns="http://www.w3.org/2000/svg" xmlns:bx="https://boxy-svg.com">
  <defs>
    <style bx:fonts="ADLaM Display">@import url(https://fonts.googleapis.com/css2?family=ADLaM+Display%3Aital%2Cwght%400%2C400&amp;display=swap);</style>
  </defs>
  <style type="text/css">
	.st0{fill:#A5A5A5;}
	.st1{fill:#FEFEFE;}
	.st2{fill:#009FDB;}
	.st3{fill:#7F5AF6;}
	.st4{fill:#303030;}
</style>
  <g id="F._white" style="" transform="matrix(1.895959, 0, 0, 1.895959, -76.963417, 68.975449)">
    <g id="P">
      <path class="st1" d="M126.08,172.36c0-15.43-12.84-27.94-28.68-27.94s-28.68,12.51-28.68,27.94v144.7 c0,15.43,12.84,27.94,28.68,27.94s28.68-12.51,28.68-27.94V172.36z"/>
      <path class="st1" d="M218.22,58.94L95.94,58.96C80.51,58.96,68,71.8,68,87.64s12.51,28.68,27.94,28.68l122.28-0.39 c19.84,0.06,35.9,16.03,35.9,35.73s-16.06,35.66-35.9,35.73l-35.74,0.17c-15.43,0-27.94,12.84-27.94,28.68 s12.51,28.68,27.94,28.68l35.74-0.2c51.71,0,93.63-41.59,93.63-92.89S269.93,58.94,218.22,58.94z"/>
    </g>
    <g id="ackX">
      <path id="X" class="st1" d="M1030.23,289.69l-73.76-90.41l70.14-85.63c6.93-8.32,5.75-20.74-2.65-27.74 c-8.4-7-20.83-5.93-27.77,2.39l-65.26,79.67l-64.64-79.23c-6.78-8.45-19.18-9.76-27.72-2.92c-8.53,6.84-9.95,19.24-3.18,27.69 l69.93,85.72l-73.47,89.7c-6.93,8.32-5.75,20.74,2.65,27.74c8.4,7,20.83,5.93,27.77-2.39l68.59-83.74l68.46,83.92 c6.78,8.45,19.18,9.76,27.72,2.92S1037.01,298.14,1030.23,289.69z"/>
      <path id="K" class="st1" d="M802.02,288.53l-59.05-53.81l-0.06-0.06l53.72-50.27c6.82-6.5,6.81-18.37-0.37-25.9 c-7.18-7.53-19.08-8.54-25.9-2.03l-73.27,70.5V98.17c0-9.4-9.44-17.02-21.09-17.02c-11.65,0-21.09,7.62-21.09,17.02v206.5 c0,9.4,9.44,17.02,21.09,17.02c11.65,0,21.09-7.62,21.09-17.02v-60.32l79.12,72.59c7.14,6.58,19.19,5.52,26.25-2.13 C809.51,307.14,809.16,295.11,802.02,288.53z"/>
      <path id="C" class="st1" d="M579.03,184.39c-12.95,0-42.56,4.81-42.56,53.66s33.31,51.07,41.82,51.07c0,0,11.47,1.48,25.9-7.03 c14.43-8.51,17.76-8.14,19.98-8.14s9.99-0.74,13.32,11.84s-4.44,17.76-6.29,19.24c-1.85,1.48-20.72,17.02-57.73,17.02 c-37.01,0-80.67-22.94-80.67-84.37s44.41-86.23,84.37-86.23s55.51,18.5,56.62,19.98c1.11,1.48,4.24,6.27,3.7,12.21 c-0.65,7.13-1.81,16.72-12.21,16.28c-8.13-0.34-21.69-9.03-26.27-11.1C587.55,183.65,579.03,184.39,579.03,184.39z"/>
      <path id="A" class="st1" d="M462.09,171.07c-4.07-4.07-13.32-19.61-53.66-19.61s-72.9,12.21-72.16,31.83 c0.64,17.01,12.66,16.31,16.28,15.54c12.21-2.59,22.53-14.44,53.66-15.17c31.46-0.74,29.61,28.12,29.61,28.12v10.73 c-94.74,0-103.99,15.91-104.73,48.11c-0.63,27.38,22.2,51.44,58.84,51.44s45.89-27.01,45.89-27.01v9.81 c0,9.09,9.03,16.47,20.17,16.47s20.17-7.37,20.17-16.47c0,0,0-55.69,0-84.19S466.17,175.14,462.09,171.07z M435.82,257.66 c0,0-2.59,34.42-37.75,34.42c0,0-25.9-0.37-25.9-24.79c0,0-3.7-21.83,38.49-22.2l25.16-0.37V257.66z"/>
    </g>
  </g>
  <g style="" transform="matrix(1.895959, 0, 0, 1.895959, -76.963417, 68.975449)">
    <text style="fill: rgb(255, 255, 255); font-family: 'ADLaM Display'; font-size: 52px; white-space: pre;" x="443.816" y="391.047">Admin</text>
  </g>
  <text style="white-space: pre; fill: rgb(51, 51, 51); font-family: Arial, sans-serif; font-size: 45.8px;" x="450.354" y="275"><tspan x="450.35400390625" dy="1em">​</tspan><tspan x="450.35400390625" dy="1em">​</tspan></text>
</svg>