<?xml version="1.0" encoding="utf-8"?>
<svg version="1.1" x="0px" y="0px" viewBox="0 0 1920 1080" style="enable-background:new 0 0 1920 1080;" xmlns="http://www.w3.org/2000/svg">
  <style type="text/css">
	.st0{fill:#A5A5A5;}
	.st1{fill:#FEFEFE;}
	.st2{fill:#009FDB;}
	.st3{fill:#7F5AF6;}
	.st4{fill:#303030;}
</style>
  <g id="F._white" transform="matrix(1.282263, 0, 0, 1.282263, -54.727615, 265.688019)" style="">
    <g id="P">
      <path class="st1" d="M126.08,172.36c0-15.43-12.84-27.94-28.68-27.94s-28.68,12.51-28.68,27.94v144.7 c0,15.43,12.84,27.94,28.68,27.94s28.68-12.51,28.68-27.94V172.36z"/>
      <path class="st1" d="M218.22,58.94L95.94,58.96C80.51,58.96,68,71.8,68,87.64s12.51,28.68,27.94,28.68l122.28-0.39 c19.84,0.06,35.9,16.03,35.9,35.73s-16.06,35.66-35.9,35.73l-35.74,0.17c-15.43,0-27.94,12.84-27.94,28.68 s12.51,28.68,27.94,28.68l35.74-0.2c51.71,0,93.63-41.59,93.63-92.89S269.93,58.94,218.22,58.94z"/>
    </g>
    <g id="ackX">
      <path id="X" class="st1" d="M1030.23,289.69l-73.76-90.41l70.14-85.63c6.93-8.32,5.75-20.74-2.65-27.74 c-8.4-7-20.83-5.93-27.77,2.39l-65.26,79.67l-64.64-79.23c-6.78-8.45-19.18-9.76-27.72-2.92c-8.53,6.84-9.95,19.24-3.18,27.69 l69.93,85.72l-73.47,89.7c-6.93,8.32-5.75,20.74,2.65,27.74c8.4,7,20.83,5.93,27.77-2.39l68.59-83.74l68.46,83.92 c6.78,8.45,19.18,9.76,27.72,2.92S1037.01,298.14,1030.23,289.69z"/>
      <path id="K" class="st1" d="M802.02,288.53l-59.05-53.81l-0.06-0.06l53.72-50.27c6.82-6.5,6.81-18.37-0.37-25.9 c-7.18-7.53-19.08-8.54-25.9-2.03l-73.27,70.5V98.17c0-9.4-9.44-17.02-21.09-17.02c-11.65,0-21.09,7.62-21.09,17.02v206.5 c0,9.4,9.44,17.02,21.09,17.02c11.65,0,21.09-7.62,21.09-17.02v-60.32l79.12,72.59c7.14,6.58,19.19,5.52,26.25-2.13 C809.51,307.14,809.16,295.11,802.02,288.53z"/>
      <path id="C" class="st1" d="M579.03,184.39c-12.95,0-42.56,4.81-42.56,53.66s33.31,51.07,41.82,51.07c0,0,11.47,1.48,25.9-7.03 c14.43-8.51,17.76-8.14,19.98-8.14s9.99-0.74,13.32,11.84s-4.44,17.76-6.29,19.24c-1.85,1.48-20.72,17.02-57.73,17.02 c-37.01,0-80.67-22.94-80.67-84.37s44.41-86.23,84.37-86.23s55.51,18.5,56.62,19.98c1.11,1.48,4.24,6.27,3.7,12.21 c-0.65,7.13-1.81,16.72-12.21,16.28c-8.13-0.34-21.69-9.03-26.27-11.1C587.55,183.65,579.03,184.39,579.03,184.39z"/>
      <path id="A" class="st1" d="M462.09,171.07c-4.07-4.07-13.32-19.61-53.66-19.61s-72.9,12.21-72.16,31.83 c0.64,17.01,12.66,16.31,16.28,15.54c12.21-2.59,22.53-14.44,53.66-15.17c31.46-0.74,29.61,28.12,29.61,28.12v10.73 c-94.74,0-103.99,15.91-104.73,48.11c-0.63,27.38,22.2,51.44,58.84,51.44s45.89-27.01,45.89-27.01v9.81 c0,9.09,9.03,16.47,20.17,16.47s20.17-7.37,20.17-16.47c0,0,0-55.69,0-84.19S466.17,175.14,462.09,171.07z M435.82,257.66 c0,0-2.59,34.42-37.75,34.42c0,0-25.9-0.37-25.9-24.79c0,0-3.7-21.83,38.49-22.2l25.16-0.37V257.66z"/>
    </g>
  </g>
  <g id="g-1" stroke-linecap="round" fill-rule="evenodd" font-size="9pt" stroke="#000" stroke-width="0" fill="#000" style="stroke: rgb(0, 0, 0); stroke-width: 0; fill: rgb(0, 0, 0); transform-origin: 173.316px 38.7942px;" transform="matrix(1.729413, 0, 0, 1.729413, 1443.174805, 490.14325)">
    <path d="M 38.287 63.713 A 7.848 7.848 0 0 0 38.404 63.672 A 12.189 12.189 0 0 0 39.793 63.076 Q 40.479 62.727 41.015 62.321 A 6.084 6.084 0 0 0 41.553 61.865 A 21.026 21.026 0 0 0 42.828 60.539 A 17.163 17.163 0 0 0 43.506 59.717 A 27.687 27.687 0 0 1 43.88 59.259 Q 44.416 58.618 44.8 58.252 A 2.325 2.325 0 0 1 45.394 57.848 Q 45.67 57.714 46.007 57.624 A 4.499 4.499 0 0 1 46.241 57.568 A 4.492 4.492 0 0 1 46.739 57.448 Q 47.259 57.349 48.016 57.293 A 23.547 23.547 0 0 1 48.755 57.251 Q 50.489 57.178 52.222 57.178 A 48.61 48.61 0 0 1 53.018 57.184 Q 54.125 57.202 54.639 57.275 Q 55.452 57.314 55.866 57.537 A 1.02 1.02 0 0 1 56.055 57.666 Q 56.371 57.942 56.495 58.729 A 5.801 5.801 0 0 1 56.544 59.131 A 34.069 34.069 0 0 1 56.636 60.385 Q 56.699 61.499 56.714 62.842 A 74.391 74.391 0 0 1 56.719 63.576 Q 56.721 65.034 56.662 66.194 A 32.917 32.917 0 0 1 56.641 66.553 A 4.621 4.621 0 0 1 56.589 66.925 Q 56.557 67.1 56.513 67.251 A 2.43 2.43 0 0 1 56.47 67.383 Q 56.348 67.725 55.958 68.408 A 6.243 6.243 0 0 1 55.655 68.843 Q 55.115 69.562 54.053 70.679 Q 52.637 72.168 49.903 73.755 A 20.786 20.786 0 0 1 47.419 74.968 Q 45.413 75.798 42.847 76.465 A 30.869 30.869 0 0 1 39.328 77.149 Q 37.351 77.423 35.071 77.526 A 63.171 63.171 0 0 1 32.227 77.588 A 46.331 46.331 0 0 1 23.377 76.769 A 40.29 40.29 0 0 1 19.629 75.854 A 25.556 25.556 0 0 1 9.351 70.02 A 23.693 23.693 0 0 1 4.998 64.494 A 32.837 32.837 0 0 1 2.466 58.936 A 38.783 38.783 0 0 1 0.87 52.69 Q 0.001 47.708 0.001 41.504 Q 0.001 31.177 3.182 23.606 A 32.76 32.76 0 0 1 4.029 21.753 A 29.418 29.418 0 0 1 10.68 12.842 A 27.697 27.697 0 0 1 15.479 9.375 A 31.674 31.674 0 0 1 26.111 5.676 A 42.294 42.294 0 0 1 33.057 5.127 Q 40.186 5.127 44.507 6.592 Q 48.829 8.057 51.075 10.034 A 29.765 29.765 0 0 1 52.336 11.206 Q 53.473 12.331 54.106 13.26 A 7.692 7.692 0 0 1 54.249 13.477 A 6.77 6.77 0 0 1 54.476 13.86 Q 54.577 14.043 54.65 14.209 A 3.15 3.15 0 0 1 54.737 14.429 A 2.275 2.275 0 0 1 54.812 14.699 Q 54.897 15.091 54.932 15.723 A 10.719 10.719 0 0 1 54.99 16.346 Q 55.046 17.194 55.024 18.422 A 48.38 48.38 0 0 1 55.005 19.141 A 36.355 36.355 0 0 1 54.899 21.003 Q 54.828 21.852 54.717 22.604 A 20.764 20.764 0 0 1 54.639 23.096 A 5.053 5.053 0 0 1 54.526 23.587 Q 54.334 24.255 54.004 24.512 A 0.855 0.855 0 0 1 53.854 24.629 Q 53.692 24.73 53.438 24.816 A 3.596 3.596 0 0 1 53.321 24.854 A 2.645 2.645 0 0 1 52.988 24.928 Q 52.642 24.984 52.15 24.996 A 11.55 11.55 0 0 1 51.856 25 Q 50.344 25 48.466 24.886 A 77.792 77.792 0 0 1 48.34 24.878 Q 46.845 24.784 45.922 24.677 A 15.927 15.927 0 0 1 45.411 24.609 Q 44.38 24.438 43.84 24.133 A 1.909 1.909 0 0 1 43.702 24.048 A 3.065 3.065 0 0 1 43.282 23.698 Q 43.088 23.507 42.893 23.262 A 6.675 6.675 0 0 1 42.628 22.9 Q 41.834 21.754 40.004 20.288 A 29.51 29.51 0 0 0 39.6 19.971 A 6.37 6.37 0 0 0 37.818 19.034 Q 35.776 18.311 32.52 18.311 A 14.578 14.578 0 0 0 25.667 19.91 A 15.113 15.113 0 0 0 21.094 23.657 Q 16.885 28.667 16.62 39.485 A 60.452 60.452 0 0 0 16.602 40.967 A 48.297 48.297 0 0 0 16.975 47.182 Q 17.911 54.373 21.196 58.496 A 14.757 14.757 0 0 0 21.314 58.643 A 16.931 16.931 0 0 0 25.309 62.263 A 13.691 13.691 0 0 0 32.813 64.404 Q 36.276 64.404 38.287 63.713 Z M 127.93 56.543 L 127.881 31.738 A 4.535 4.535 0 0 1 127.929 31.058 Q 127.983 30.702 128.099 30.414 A 2.012 2.012 0 0 1 128.37 29.932 A 23.423 23.423 0 0 1 130.176 27.856 Q 131.904 26.074 134.376 24.121 A 3.62 3.62 0 0 1 134.779 23.869 Q 134.987 23.758 135.18 23.699 A 1.428 1.428 0 0 1 135.596 23.633 A 1.716 1.716 0 0 1 136.427 23.853 A 2.419 2.419 0 0 1 136.817 24.121 A 48.286 48.286 0 0 1 138.528 25.494 Q 139.547 26.352 140.357 27.148 A 27.77 27.77 0 0 1 141.827 28.704 A 21.597 21.597 0 0 1 142.823 29.932 Q 143.204 30.427 143.288 31.249 A 4.834 4.834 0 0 1 143.311 31.738 L 143.311 55.176 Q 143.311 64.854 150.318 65.692 A 11.721 11.721 0 0 0 151.71 65.771 A 9.584 9.584 0 0 0 154.808 65.292 A 7.985 7.985 0 0 0 158.35 62.866 Q 160.636 60.199 160.824 55.784 A 18.931 18.931 0 0 0 160.84 54.98 L 160.84 31.738 A 4.535 4.535 0 0 1 160.888 31.058 Q 160.942 30.702 161.058 30.414 A 2.012 2.012 0 0 1 161.329 29.932 A 23.423 23.423 0 0 1 163.135 27.856 Q 164.863 26.074 167.335 24.121 A 3.62 3.62 0 0 1 167.738 23.869 Q 167.946 23.758 168.138 23.699 A 1.428 1.428 0 0 1 168.555 23.633 A 1.716 1.716 0 0 1 169.386 23.853 A 2.419 2.419 0 0 1 169.776 24.121 A 48.286 48.286 0 0 1 171.487 25.494 Q 172.506 26.352 173.316 27.148 A 27.77 27.77 0 0 1 174.786 28.704 A 21.597 21.597 0 0 1 175.782 29.932 Q 176.163 30.427 176.247 31.249 A 4.834 4.834 0 0 1 176.27 31.738 L 176.27 74.121 Q 176.27 75.049 175.635 75.708 A 2.123 2.123 0 0 1 174.115 76.366 A 2.824 2.824 0 0 1 174.024 76.367 L 166.7 76.367 A 4.748 4.748 0 0 1 165.972 76.314 A 3.574 3.574 0 0 1 165.308 76.147 A 2.311 2.311 0 0 1 164.685 75.8 Q 164.453 75.622 164.232 75.376 A 4.133 4.133 0 0 1 164.161 75.293 L 161.133 71.387 L 160.792 71.387 Q 160.01 72.51 158.375 73.975 A 9.49 9.49 0 0 1 156.942 75.018 Q 155.576 75.842 153.638 76.514 Q 150.538 77.588 145.313 77.588 Q 129.29 77.588 128.037 59.707 A 45.282 45.282 0 0 1 127.93 56.543 Z M 291.602 56.055 L 270.655 56.055 A 13.302 13.302 0 0 0 271.311 59.36 A 9.349 9.349 0 0 0 274.341 63.721 Q 277.637 66.357 283.301 66.357 Q 286.442 66.357 288.711 65.701 A 10.767 10.767 0 0 0 290.504 65.015 A 65.686 65.686 0 0 0 291.756 64.378 Q 293.482 63.477 294.288 62.891 Q 295.215 62.207 296.387 62.256 A 6.649 6.649 0 0 1 296.973 62.285 Q 297.608 62.342 298.487 62.509 A 28.856 28.856 0 0 1 299.048 62.622 Q 300.782 62.988 302.491 63.965 A 2.945 2.945 0 0 1 303.081 64.361 A 1.746 1.746 0 0 1 303.712 65.723 A 4.713 4.713 0 0 1 303.69 66.147 Q 303.651 66.574 303.541 67.158 A 19.601 19.601 0 0 1 303.467 67.529 Q 303.355 68.053 303.129 68.934 A 91.348 91.348 0 0 1 302.979 69.507 A 13.974 13.974 0 0 1 302.295 71.497 A 12.606 12.606 0 0 1 302.1 71.924 Q 301.841 72.399 301.315 72.835 A 4.926 4.926 0 0 1 301.172 72.949 A 12.529 12.529 0 0 1 300.609 73.318 Q 299.955 73.725 298.987 74.248 A 62.222 62.222 0 0 1 298.023 74.756 Q 296.563 75.51 294.387 76.144 A 39.834 39.834 0 0 1 292.09 76.733 A 29.879 29.879 0 0 1 289.007 77.252 Q 286.181 77.588 282.569 77.588 Q 274.607 77.588 268.645 75.111 A 27.082 27.082 0 0 1 268.213 74.927 A 20.165 20.165 0 0 1 258.741 66.65 A 21.888 21.888 0 0 1 256.323 60.667 Q 255.372 56.87 255.372 52.148 Q 255.372 38.818 262.208 31.982 A 22.92 22.92 0 0 1 274.949 25.58 A 32.544 32.544 0 0 1 280.372 25.146 Q 286.924 25.146 291.683 27.229 A 19.989 19.989 0 0 1 292.847 27.783 A 19.388 19.388 0 0 1 298.216 31.8 A 17.754 17.754 0 0 1 300.611 35.059 A 20.115 20.115 0 0 1 303.145 43.111 A 24.886 24.886 0 0 1 303.272 45.654 A 17.777 17.777 0 0 1 303.062 48.493 Q 302.481 52.074 300.294 53.76 A 9.729 9.729 0 0 1 297.326 55.277 Q 295.977 55.715 294.334 55.906 A 23.656 23.656 0 0 1 291.602 56.055 Z M 70.753 71.045 A 22.603 22.603 0 0 0 72.562 72.531 Q 79.417 77.588 90.235 77.588 A 45.728 45.728 0 0 0 91.157 77.579 Q 95.581 77.489 99.319 76.537 A 23.961 23.961 0 0 0 110.157 70.703 Q 115.04 66.051 116.624 58.544 A 38.106 38.106 0 0 0 117.383 50.684 Q 117.383 45.75 116.275 41.757 A 20.679 20.679 0 0 0 110.157 31.616 A 24.578 24.578 0 0 0 99.094 26.019 A 36.199 36.199 0 0 0 90.919 25.146 Q 86.055 25.146 81.955 26.149 A 25.314 25.314 0 0 0 71.021 31.714 Q 63.575 38.281 63.575 51.563 A 43.552 43.552 0 0 0 63.637 53.917 Q 63.859 58.023 64.876 61.422 A 20.759 20.759 0 0 0 70.753 71.045 Z M 204.883 32.031 L 204.883 35.645 L 205.079 35.645 A 19.751 19.751 0 0 1 207.518 30.851 Q 211.224 25.656 217.833 25.494 A 17.485 17.485 0 0 1 218.262 25.488 A 20.147 20.147 0 0 1 219.05 25.503 Q 219.752 25.53 220.264 25.61 A 19.314 19.314 0 0 1 220.614 25.668 Q 221.116 25.756 221.338 25.83 Q 222.071 26.074 222.071 26.953 L 222.071 38.721 Q 222.071 40.19 220.415 39.589 A 4.762 4.762 0 0 1 220.313 39.551 A 6.433 6.433 0 0 0 219.903 39.398 Q 219.388 39.224 218.629 39.038 Q 217.53 38.77 215.577 38.77 A 10.973 10.973 0 0 0 212.016 39.321 A 9.009 9.009 0 0 0 207.715 42.456 A 12.72 12.72 0 0 0 205.603 46.769 Q 205.108 48.503 204.954 50.557 A 25.782 25.782 0 0 0 204.883 52.49 L 204.883 73.779 A 5.508 5.508 0 0 1 204.843 74.475 Q 204.747 75.226 204.424 75.641 A 1.343 1.343 0 0 1 204.273 75.806 Q 203.716 76.318 202.448 76.363 A 7.074 7.074 0 0 1 202.198 76.367 L 192.139 76.367 A 6.023 6.023 0 0 1 191.421 76.328 Q 190.512 76.218 190.064 75.806 A 1.556 1.556 0 0 1 189.692 75.257 Q 189.486 74.772 189.458 74.023 A 6.493 6.493 0 0 1 189.454 73.779 L 189.454 32.861 A 4.535 4.535 0 0 1 189.501 32.181 Q 189.555 31.825 189.671 31.537 A 2.012 2.012 0 0 1 189.942 31.055 A 22.246 22.246 0 0 1 191.227 29.501 A 28.593 28.593 0 0 1 192.408 28.271 A 30.622 30.622 0 0 1 193.794 26.995 Q 194.524 26.362 195.37 25.693 A 54.005 54.005 0 0 1 195.948 25.244 A 2.592 2.592 0 0 1 196.314 25.012 A 1.924 1.924 0 0 1 196.729 24.854 A 3.855 3.855 0 0 1 197.008 24.794 Q 197.154 24.769 197.282 24.76 A 1.957 1.957 0 0 1 197.413 24.756 A 2.073 2.073 0 0 1 198.246 24.937 A 2.942 2.942 0 0 1 198.78 25.244 A 55.322 55.322 0 0 1 200.866 26.956 Q 203.286 29.05 204.444 30.664 A 2.198 2.198 0 0 1 204.882 31.946 A 2.722 2.722 0 0 1 204.883 32.031 Z M 329.444 32.031 L 329.444 35.645 L 329.639 35.645 A 19.751 19.751 0 0 1 332.079 30.851 Q 335.784 25.656 342.393 25.494 A 17.485 17.485 0 0 1 342.823 25.488 A 20.147 20.147 0 0 1 343.61 25.503 Q 344.312 25.53 344.825 25.61 A 19.314 19.314 0 0 1 345.175 25.668 Q 345.677 25.756 345.899 25.83 Q 346.631 26.074 346.631 26.953 L 346.631 38.721 Q 346.631 40.19 344.975 39.589 A 4.762 4.762 0 0 1 344.874 39.551 A 6.433 6.433 0 0 0 344.463 39.398 Q 343.949 39.224 343.189 39.038 Q 342.09 38.77 340.137 38.77 A 10.973 10.973 0 0 0 336.576 39.321 A 9.009 9.009 0 0 0 332.276 42.456 A 12.72 12.72 0 0 0 330.163 46.769 Q 329.669 48.503 329.514 50.557 A 25.782 25.782 0 0 0 329.444 52.49 L 329.444 73.779 A 5.508 5.508 0 0 1 329.403 74.475 Q 329.307 75.226 328.985 75.641 A 1.343 1.343 0 0 1 328.834 75.806 Q 328.277 76.318 327.008 76.363 A 7.074 7.074 0 0 1 326.758 76.367 L 316.7 76.367 A 6.023 6.023 0 0 1 315.982 76.328 Q 315.073 76.218 314.625 75.806 A 1.556 1.556 0 0 1 314.253 75.257 Q 314.047 74.772 314.019 74.023 A 6.493 6.493 0 0 1 314.014 73.779 L 314.014 32.861 A 4.535 4.535 0 0 1 314.062 32.181 Q 314.116 31.825 314.231 31.537 A 2.012 2.012 0 0 1 314.503 31.055 A 22.246 22.246 0 0 1 315.787 29.501 A 28.593 28.593 0 0 1 316.968 28.271 A 30.622 30.622 0 0 1 318.355 26.995 Q 319.084 26.362 319.931 25.693 A 54.005 54.005 0 0 1 320.508 25.244 A 2.592 2.592 0 0 1 320.875 25.012 A 1.924 1.924 0 0 1 321.29 24.854 A 3.855 3.855 0 0 1 321.569 24.794 Q 321.714 24.769 321.843 24.76 A 1.957 1.957 0 0 1 321.973 24.756 A 2.073 2.073 0 0 1 322.806 24.937 A 2.942 2.942 0 0 1 323.34 25.244 A 55.322 55.322 0 0 1 325.427 26.956 Q 327.846 29.05 329.004 30.664 A 2.198 2.198 0 0 1 329.443 31.946 A 2.722 2.722 0 0 1 329.444 32.031 Z M 244.776 28.955 L 244.776 73.779 A 5.508 5.508 0 0 1 244.735 74.475 Q 244.639 75.226 244.317 75.641 A 1.343 1.343 0 0 1 244.166 75.806 Q 243.609 76.318 242.34 76.363 A 7.074 7.074 0 0 1 242.09 76.367 L 232.032 76.367 A 6.023 6.023 0 0 1 231.314 76.328 Q 230.405 76.218 229.957 75.806 A 1.556 1.556 0 0 1 229.585 75.257 Q 229.379 74.772 229.351 74.023 A 6.493 6.493 0 0 1 229.346 73.779 L 229.346 28.955 A 5.508 5.508 0 0 1 229.387 28.26 Q 229.483 27.509 229.806 27.093 A 1.343 1.343 0 0 1 229.957 26.929 Q 230.514 26.416 231.782 26.371 A 7.074 7.074 0 0 1 232.032 26.367 L 242.09 26.367 A 6.023 6.023 0 0 1 242.808 26.407 Q 243.717 26.516 244.166 26.929 A 1.556 1.556 0 0 1 244.538 27.477 Q 244.743 27.963 244.772 28.711 A 6.493 6.493 0 0 1 244.776 28.955 Z M 90.723 65.771 A 13.69 13.69 0 0 0 93.962 65.412 A 8.765 8.765 0 0 0 98.829 62.427 A 9.509 9.509 0 0 0 100.329 59.719 Q 101.34 57.018 101.523 52.874 A 43.116 43.116 0 0 0 101.563 50.977 A 34.356 34.356 0 0 0 101.391 47.404 Q 100.988 43.571 99.648 41.29 A 7.709 7.709 0 0 0 98.804 40.112 Q 96.214 37.155 91.277 36.975 A 17.838 17.838 0 0 0 90.626 36.963 A 12.931 12.931 0 0 0 87.037 37.435 A 9.625 9.625 0 0 0 82.398 40.356 Q 79.524 43.605 79.401 50.723 A 37.287 37.287 0 0 0 79.395 51.367 A 35.268 35.268 0 0 0 79.574 55.051 Q 80.109 60.132 82.252 62.549 A 9.098 9.098 0 0 0 86.687 65.26 Q 88.149 65.676 89.9 65.753 A 18.525 18.525 0 0 0 90.723 65.771 Z M 227.1 9.961 Q 227.1 9.326 227.491 8.838 A 127.644 127.644 0 0 1 227.701 8.575 Q 228.04 8.154 228.516 7.568 A 45.807 45.807 0 0 1 229.993 5.963 A 60.65 60.65 0 0 1 231.69 4.272 A 99.955 99.955 0 0 1 235.352 0.928 A 9.698 9.698 0 0 1 235.837 0.566 Q 236.602 0.035 237.052 0.002 A 0.797 0.797 0 0 1 237.11 0 A 1.157 1.157 0 0 1 237.46 0.064 Q 238.015 0.243 238.917 0.928 A 76.201 76.201 0 0 1 242.579 4.297 A 56.004 56.004 0 0 1 245.655 7.568 A 75.054 75.054 0 0 1 245.959 7.921 Q 246.393 8.428 246.703 8.812 A 5.069 5.069 0 0 1 246.705 8.813 Q 247.12 9.326 247.12 9.961 A 1.684 1.684 0 0 1 246.705 11.084 A 62.504 62.504 0 0 0 246.48 11.349 Q 246.232 11.645 245.912 12.032 A 200.29 200.29 0 0 0 245.606 12.402 A 50.817 50.817 0 0 1 244.178 13.971 A 69.282 69.282 0 0 1 242.53 15.649 Q 240.772 17.383 238.917 18.945 A 10.525 10.525 0 0 1 238.593 19.212 Q 238.135 19.574 237.842 19.702 A 2.238 2.238 0 0 1 237.51 19.819 Q 237.315 19.87 237.134 19.873 A 1.378 1.378 0 0 1 237.11 19.873 A 1.52 1.52 0 0 1 236.673 19.806 A 1.992 1.992 0 0 1 236.402 19.702 A 2.61 2.61 0 0 1 236.193 19.591 Q 235.848 19.389 235.28 18.965 A 22.367 22.367 0 0 1 235.254 18.945 Q 233.301 17.383 231.592 15.649 A 66.318 66.318 0 0 1 229.636 13.582 A 53.591 53.591 0 0 1 228.516 12.305 A 163.065 163.065 0 0 0 228.214 11.934 Q 227.918 11.572 227.687 11.294 A 51.92 51.92 0 0 0 227.491 11.06 Q 227.1 10.596 227.1 9.961 Z M 270.557 46.045 L 286.475 46.045 Q 288.965 46.045 288.965 43.75 A 9.134 9.134 0 0 0 288.464 40.672 A 8.014 8.014 0 0 0 286.793 37.915 A 6.854 6.854 0 0 0 283.714 36.016 Q 282.597 35.668 281.243 35.578 A 14.639 14.639 0 0 0 280.274 35.547 A 11.672 11.672 0 0 0 277.575 35.839 Q 275.657 36.295 274.331 37.462 A 6.962 6.962 0 0 0 273.316 38.574 Q 271.094 41.602 270.557 46.045 Z" vector-effect="non-scaling-stroke" style="fill: rgb(255, 255, 255);"/>
  </g>
</svg>