<?xml version="1.0" encoding="utf-8"?>
<svg version="1.1" x="0px" y="0px" viewBox="0 0 1920 1080" style="enable-background:new 0 0 1920 1080;" xmlns="http://www.w3.org/2000/svg">
  <style type="text/css">
	.st0{fill:#A5A5A5;}
	.st1{fill:#FEFEFE;}
	.st2{fill:#009FDB;}
	.st3{fill:#7F5AF6;}
	.st4{fill:#303030;}
</style>
  <g id="F._white" transform="matrix(1.282263, 0, 0, 1.282263, -54.727615, 265.688019)" style="">
    <g id="P">
      <path class="st1" d="M126.08,172.36c0-15.43-12.84-27.94-28.68-27.94s-28.68,12.51-28.68,27.94v144.7 c0,15.43,12.84,27.94,28.68,27.94s28.68-12.51,28.68-27.94V172.36z"/>
      <path class="st1" d="M218.22,58.94L95.94,58.96C80.51,58.96,68,71.8,68,87.64s12.51,28.68,27.94,28.68l122.28-0.39 c19.84,0.06,35.9,16.03,35.9,35.73s-16.06,35.66-35.9,35.73l-35.74,0.17c-15.43,0-27.94,12.84-27.94,28.68 s12.51,28.68,27.94,28.68l35.74-0.2c51.71,0,93.63-41.59,93.63-92.89S269.93,58.94,218.22,58.94z"/>
    </g>
    <g id="ackX">
      <path id="X" class="st1" d="M1030.23,289.69l-73.76-90.41l70.14-85.63c6.93-8.32,5.75-20.74-2.65-27.74 c-8.4-7-20.83-5.93-27.77,2.39l-65.26,79.67l-64.64-79.23c-6.78-8.45-19.18-9.76-27.72-2.92c-8.53,6.84-9.95,19.24-3.18,27.69 l69.93,85.72l-73.47,89.7c-6.93,8.32-5.75,20.74,2.65,27.74c8.4,7,20.83,5.93,27.77-2.39l68.59-83.74l68.46,83.92 c6.78,8.45,19.18,9.76,27.72,2.92S1037.01,298.14,1030.23,289.69z"/>
      <path id="K" class="st1" d="M802.02,288.53l-59.05-53.81l-0.06-0.06l53.72-50.27c6.82-6.5,6.81-18.37-0.37-25.9 c-7.18-7.53-19.08-8.54-25.9-2.03l-73.27,70.5V98.17c0-9.4-9.44-17.02-21.09-17.02c-11.65,0-21.09,7.62-21.09,17.02v206.5 c0,9.4,9.44,17.02,21.09,17.02c11.65,0,21.09-7.62,21.09-17.02v-60.32l79.12,72.59c7.14,6.58,19.19,5.52,26.25-2.13 C809.51,307.14,809.16,295.11,802.02,288.53z"/>
      <path id="C" class="st1" d="M579.03,184.39c-12.95,0-42.56,4.81-42.56,53.66s33.31,51.07,41.82,51.07c0,0,11.47,1.48,25.9-7.03 c14.43-8.51,17.76-8.14,19.98-8.14s9.99-0.74,13.32,11.84s-4.44,17.76-6.29,19.24c-1.85,1.48-20.72,17.02-57.73,17.02 c-37.01,0-80.67-22.94-80.67-84.37s44.41-86.23,84.37-86.23s55.51,18.5,56.62,19.98c1.11,1.48,4.24,6.27,3.7,12.21 c-0.65,7.13-1.81,16.72-12.21,16.28c-8.13-0.34-21.69-9.03-26.27-11.1C587.55,183.65,579.03,184.39,579.03,184.39z"/>
      <path id="A" class="st1" d="M462.09,171.07c-4.07-4.07-13.32-19.61-53.66-19.61s-72.9,12.21-72.16,31.83 c0.64,17.01,12.66,16.31,16.28,15.54c12.21-2.59,22.53-14.44,53.66-15.17c31.46-0.74,29.61,28.12,29.61,28.12v10.73 c-94.74,0-103.99,15.91-104.73,48.11c-0.63,27.38,22.2,51.44,58.84,51.44s45.89-27.01,45.89-27.01v9.81 c0,9.09,9.03,16.47,20.17,16.47s20.17-7.37,20.17-16.47c0,0,0-55.69,0-84.19S466.17,175.14,462.09,171.07z M435.82,257.66 c0,0-2.59,34.42-37.75,34.42c0,0-25.9-0.37-25.9-24.79c0,0-3.7-21.83,38.49-22.2l25.16-0.37V257.66z"/>
    </g>
  </g>
  <g id="svgGroup" stroke-linecap="round" fill-rule="evenodd" font-size="9pt" stroke="#000" stroke-width="0" fill="#000" style="stroke: rgb(0, 0, 0); stroke-width: 0; fill: rgb(0, 0, 0);" transform="matrix(1.624282, 0, 0, 1.624282, 1281.530518, 457.814484)">
    <path d="M 277.899 47.413 L 277.899 81.148 C 277.9 81.423 277.884 81.697 277.851 81.97 C 277.776 82.562 277.61 83.022 277.356 83.351 C 277.302 83.42 277.242 83.485 277.177 83.545 C 276.738 83.949 276.018 84.169 275.018 84.205 C 274.92 84.208 274.821 84.21 274.722 84.209 L 262.822 84.209 C 262.539 84.211 262.255 84.195 261.973 84.162 C 261.256 84.076 260.721 83.87 260.368 83.545 C 260.176 83.363 260.026 83.141 259.928 82.896 C 259.765 82.513 259.673 82.026 259.651 81.436 C 259.647 81.34 259.645 81.244 259.645 81.148 L 259.645 50.417 C 259.649 49.355 259.594 48.294 259.478 47.239 C 259.17 44.549 258.437 42.518 257.278 41.145 C 256.262 39.96 254.905 39.119 253.391 38.738 C 252.551 38.509 251.625 38.38 250.614 38.351 C 250.467 38.347 250.32 38.344 250.172 38.344 C 248.056 38.344 246.273 38.699 244.823 39.408 C 244.356 39.634 243.913 39.907 243.5 40.222 C 242.019 41.361 240.886 42.893 240.232 44.644 C 240.151 44.853 240.075 45.064 240.006 45.277 L 240.006 81.148 C 240.007 81.423 239.991 81.697 239.957 81.97 C 239.881 82.562 239.717 83.022 239.463 83.351 C 239.409 83.42 239.349 83.485 239.284 83.545 C 238.845 83.949 238.125 84.169 237.124 84.205 C 237.025 84.208 236.927 84.21 236.828 84.209 L 224.929 84.209 C 224.646 84.211 224.362 84.195 224.08 84.162 C 223.363 84.076 222.828 83.87 222.475 83.545 C 222.283 83.363 222.133 83.141 222.035 82.896 C 221.872 82.513 221.78 82.026 221.758 81.436 C 221.754 81.34 221.752 81.244 221.752 81.148 L 221.752 50.417 C 221.752 46.219 220.885 43.158 219.153 41.233 C 217.595 39.485 215.39 38.449 213.05 38.365 C 212.812 38.351 212.574 38.344 212.336 38.344 C 210.055 38.344 208.157 38.827 206.642 39.792 C 206.394 39.95 206.154 40.123 205.924 40.308 C 204.308 41.617 203.056 43.273 202.171 45.275 L 202.169 81.148 C 202.171 81.423 202.155 81.697 202.122 81.97 C 202.046 82.562 201.881 83.022 201.626 83.351 C 201.572 83.42 201.513 83.485 201.448 83.545 C 201.009 83.949 200.289 84.169 199.289 84.205 C 199.19 84.208 199.092 84.21 198.993 84.209 L 187.093 84.209 C 186.809 84.211 186.526 84.195 186.244 84.162 C 185.527 84.076 184.992 83.87 184.638 83.545 C 184.447 83.363 184.297 83.141 184.198 82.896 C 184.036 82.513 183.944 82.026 183.922 81.436 C 183.918 81.34 183.917 81.244 183.917 81.148 L 183.917 32.741 C 183.915 32.472 183.934 32.203 183.972 31.937 C 184.016 31.656 184.083 31.402 184.174 31.175 C 184.254 30.971 184.361 30.778 184.494 30.604 C 184.973 29.969 185.48 29.356 186.014 28.766 C 186.465 28.268 186.931 27.782 187.411 27.311 C 187.942 26.791 188.489 26.288 189.051 25.802 C 189.627 25.302 190.248 24.788 190.915 24.262 C 191.142 24.083 191.37 23.906 191.599 23.73 C 191.757 23.607 191.926 23.498 192.103 23.404 C 192.302 23.301 192.497 23.229 192.689 23.19 C 192.806 23.165 192.924 23.152 193.044 23.152 C 193.346 23.152 193.678 23.25 194.04 23.448 C 194.194 23.533 194.344 23.627 194.487 23.73 C 195.997 24.917 197.306 26.053 198.413 27.139 C 198.491 27.215 198.569 27.292 198.646 27.369 C 199.558 28.277 200.41 29.243 201.196 30.262 C 201.37 30.489 201.541 30.718 201.708 30.95 L 201.997 30.95 C 202.534 30.28 203.131 29.66 203.778 29.095 C 204.94 28.07 206.387 27.052 208.12 26.041 C 209.233 25.408 210.421 24.919 211.657 24.586 C 213.93 23.948 216.666 23.625 219.866 23.614 C 219.917 23.614 219.968 23.614 220.019 23.614 C 221.307 23.61 222.594 23.669 223.877 23.791 C 226.456 24.045 228.56 24.578 230.187 25.389 C 230.463 25.526 230.733 25.676 230.995 25.839 C 232.428 26.719 233.756 27.761 234.952 28.945 C 235.632 29.623 236.259 30.351 236.828 31.124 C 237.413 30.424 238.059 29.778 238.76 29.195 C 240.016 28.134 241.577 27.092 243.442 26.069 C 244.639 25.429 245.909 24.935 247.224 24.598 C 249.662 23.948 252.582 23.62 255.983 23.614 C 256.01 23.614 256.037 23.614 256.064 23.614 C 258.071 23.602 260.075 23.759 262.056 24.085 C 266.727 24.887 270.294 26.714 272.757 29.564 C 274.301 31.393 275.479 33.502 276.227 35.776 C 276.854 37.595 277.305 39.619 277.579 41.846 C 277.799 43.693 277.906 45.553 277.899 47.413 Z M 384.648 47.413 L 384.648 81.148 C 384.649 81.423 384.633 81.697 384.599 81.97 C 384.523 82.562 384.358 83.022 384.103 83.351 C 384.049 83.42 383.99 83.485 383.925 83.545 C 383.486 83.949 382.766 84.169 381.766 84.205 C 381.667 84.208 381.569 84.21 381.47 84.209 L 369.57 84.209 C 369.286 84.211 369.003 84.195 368.721 84.162 C 368.004 84.076 367.469 83.87 367.115 83.545 C 366.924 83.363 366.774 83.141 366.675 82.896 C 366.513 82.513 366.421 82.026 366.399 81.436 C 366.395 81.34 366.394 81.244 366.394 81.148 L 366.394 50.417 C 366.399 49.322 366.329 48.229 366.183 47.145 C 365.825 44.587 365.01 42.616 363.737 41.233 C 362.357 39.739 360.501 38.77 358.485 38.493 C 357.834 38.392 357.175 38.342 356.516 38.344 C 355.63 38.339 354.745 38.403 353.869 38.536 C 352.933 38.683 352.088 38.916 351.333 39.233 C 350.674 39.504 350.057 39.866 349.498 40.308 C 347.851 41.631 346.551 43.337 345.714 45.277 L 345.714 81.148 C 345.715 81.423 345.699 81.697 345.666 81.97 C 345.591 82.562 345.425 83.022 345.171 83.351 C 345.117 83.42 345.057 83.485 344.992 83.545 C 344.553 83.949 343.833 84.169 342.833 84.205 C 342.734 84.208 342.636 84.21 342.537 84.209 L 330.637 84.209 C 330.354 84.211 330.07 84.195 329.788 84.162 C 329.071 84.076 328.536 83.87 328.183 83.545 C 327.991 83.363 327.841 83.141 327.743 82.896 C 327.58 82.513 327.488 82.026 327.466 81.436 C 327.462 81.34 327.461 81.244 327.461 81.148 L 327.461 32.741 C 327.459 32.472 327.478 32.203 327.517 31.937 C 327.559 31.656 327.626 31.402 327.718 31.175 C 327.798 30.971 327.906 30.778 328.038 30.604 C 328.517 29.969 329.024 29.356 329.558 28.766 C 330.01 28.268 330.475 27.782 330.956 27.311 C 331.486 26.791 332.033 26.288 332.595 25.802 C 333.171 25.302 333.792 24.788 334.46 24.262 C 334.686 24.083 334.914 23.906 335.143 23.73 C 335.302 23.607 335.47 23.498 335.647 23.404 C 335.845 23.301 336.041 23.229 336.233 23.19 C 336.35 23.165 336.469 23.152 336.588 23.152 C 336.89 23.152 337.222 23.25 337.584 23.448 C 337.739 23.533 337.888 23.627 338.031 23.73 C 339.541 24.917 340.85 26.053 341.958 27.139 C 342.036 27.215 342.113 27.292 342.191 27.369 C 343.102 28.277 343.954 29.243 344.74 30.262 C 344.914 30.489 345.085 30.718 345.252 30.95 L 345.541 30.95 C 345.766 30.662 346.003 30.383 346.251 30.114 C 346.841 29.47 347.587 28.757 348.487 27.976 C 349.041 27.501 349.636 27.075 350.263 26.702 C 351.313 26.07 352.56 25.483 354.003 24.943 C 356.371 24.057 359.404 23.614 363.102 23.614 C 366.721 23.614 370.167 24.346 373.441 25.81 C 376.016 26.976 378.262 28.759 379.982 31.002 C 380.531 31.705 381.038 32.44 381.499 33.204 C 382.397 34.72 383.083 36.353 383.537 38.057 C 383.953 39.559 384.253 41.203 384.435 42.989 C 384.58 44.459 384.652 45.936 384.648 47.413 Z M 96.231 84.209 L 82.251 84.209 C 81.875 84.215 81.5 84.166 81.138 84.065 C 80.053 83.744 79.481 82.887 79.421 81.494 C 79.353 79.743 79.22 77.994 79.02 76.253 C 78.813 74.394 78.531 72.409 78.176 70.297 C 77.921 68.788 77.643 67.283 77.342 65.783 L 45.803 65.783 C 45.416 67.92 45.077 70.065 44.784 72.216 C 44.327 75.61 44.05 78.703 43.954 81.494 C 43.943 81.877 43.875 82.256 43.75 82.618 C 43.367 83.679 42.453 84.209 41.008 84.209 L 27.318 84.209 C 27.033 84.212 26.749 84.173 26.475 84.094 C 26.146 83.996 25.842 83.829 25.585 83.603 C 25.384 83.422 25.23 83.194 25.137 82.94 C 24.992 82.566 24.929 82.094 24.949 81.523 C 24.949 81.513 24.949 81.504 24.95 81.494 C 25.115 77.821 25.601 73.714 26.406 69.173 C 26.54 68.417 26.681 67.663 26.827 66.909 C 27.655 62.676 28.628 58.473 29.746 54.308 C 30.134 52.853 30.538 51.402 30.957 49.955 C 32.651 44.102 34.538 38.373 36.618 32.77 C 37.799 29.578 39.061 26.417 40.403 23.289 C 41.258 21.3 42.153 19.329 43.088 17.376 C 43.875 15.727 44.705 14.098 45.576 12.492 C 46.945 9.977 48.291 7.792 49.614 5.939 C 50.023 5.357 50.471 4.804 50.955 4.283 C 51.467 3.736 51.991 3.271 52.529 2.887 C 52.735 2.739 52.948 2.601 53.167 2.473 C 54.345 1.784 55.788 1.42 57.496 1.379 C 57.603 1.376 57.71 1.375 57.817 1.375 L 66.135 1.375 C 67.771 1.375 69.175 1.65 70.348 2.2 C 70.526 2.283 70.701 2.374 70.872 2.473 C 71.5 2.84 72.083 3.279 72.608 3.781 C 73.086 4.231 73.551 4.748 74.004 5.332 C 74.158 5.531 74.308 5.734 74.453 5.939 C 75.304 7.138 76.106 8.371 76.857 9.636 C 77.693 11.037 78.536 12.566 79.387 14.225 C 79.926 15.277 80.447 16.337 80.952 17.405 C 82.378 20.427 83.719 23.488 84.975 26.585 C 85.811 28.644 86.618 30.716 87.393 32.799 C 89.472 38.383 91.35 44.092 93.025 49.926 C 94.191 53.974 95.242 58.055 96.174 62.163 C 96.52 63.693 96.847 65.227 97.155 66.765 C 97.605 68.997 97.988 71.242 98.305 73.497 C 98.684 76.236 98.917 78.787 99.003 81.148 C 99.003 81.188 99.004 81.228 99.004 81.268 C 99.004 82.948 98.326 83.907 96.97 84.148 C 96.726 84.19 96.479 84.211 96.231 84.209 Z M 150.067 24.538 L 150.067 2.992 C 150.066 2.723 150.084 2.454 150.123 2.188 C 150.165 1.908 150.233 1.654 150.324 1.426 C 150.404 1.222 150.512 1.03 150.645 0.856 C 151.308 -0.004 152.021 -0.824 152.781 -1.6 C 154.144 -3.006 155.8 -4.479 157.75 -6.019 C 157.902 -6.128 158.061 -6.228 158.227 -6.317 C 158.391 -6.404 158.549 -6.471 158.701 -6.517 C 158.86 -6.567 159.026 -6.594 159.193 -6.596 C 159.538 -6.594 159.876 -6.505 160.176 -6.336 C 160.34 -6.245 160.494 -6.139 160.638 -6.019 C 161.324 -5.493 161.999 -4.951 162.662 -4.395 C 163.465 -3.718 164.187 -3.065 164.825 -2.437 C 165.428 -1.846 166.009 -1.232 166.564 -0.597 C 166.975 -0.127 167.368 0.357 167.743 0.856 C 168.043 1.246 168.227 1.765 168.293 2.414 C 168.312 2.606 168.321 2.799 168.32 2.992 L 168.32 81.552 C 168.32 82.284 168.07 82.909 167.569 83.43 C 167.099 83.922 166.45 84.202 165.771 84.207 C 165.735 84.208 165.699 84.209 165.663 84.209 L 157.057 84.209 C 156.768 84.211 156.48 84.19 156.195 84.147 C 155.928 84.106 155.665 84.04 155.41 83.949 C 155.144 83.851 154.896 83.713 154.673 83.539 C 154.49 83.398 154.311 83.231 154.137 83.036 C 154.108 83.004 154.08 82.972 154.053 82.939 L 150.471 78.317 L 150.067 78.317 C 149.898 78.574 149.714 78.82 149.516 79.056 C 149.096 79.567 148.546 80.143 147.866 80.785 C 147.705 80.936 147.544 81.086 147.381 81.234 C 146.856 81.706 146.288 82.128 145.685 82.495 C 144.609 83.162 143.306 83.771 141.778 84.324 C 140.067 84.944 137.964 85.347 135.471 85.533 C 134.331 85.616 133.188 85.656 132.044 85.654 C 129.873 85.669 127.709 85.413 125.603 84.89 C 123.224 84.295 120.973 83.272 118.961 81.869 C 115.883 79.695 113.389 76.796 111.698 73.429 C 111.358 72.77 111.045 72.098 110.758 71.414 C 109.645 68.721 108.871 65.899 108.455 63.015 C 108.115 60.699 107.949 58.361 107.957 56.021 C 107.946 53.55 108.107 51.081 108.438 48.633 C 109.05 44.26 110.247 40.513 112.029 37.392 C 114.744 32.635 118.576 29.14 123.524 26.907 C 128.328 24.739 133.975 23.623 140.466 23.56 C 140.662 23.558 140.859 23.557 141.055 23.556 C 142.718 23.556 144.177 23.616 145.431 23.736 C 145.89 23.779 146.348 23.835 146.803 23.903 C 147.157 23.957 147.51 24.014 147.862 24.073 C 148.52 24.185 149.067 24.291 149.504 24.393 C 149.693 24.436 149.881 24.485 150.067 24.538 Z M 311.748 28.121 L 311.748 81.148 C 311.75 81.423 311.734 81.697 311.701 81.97 C 311.625 82.562 311.46 83.022 311.205 83.351 C 311.151 83.42 311.091 83.485 311.027 83.545 C 310.587 83.949 309.868 84.169 308.868 84.205 C 308.769 84.208 308.67 84.21 308.572 84.209 L 296.672 84.209 C 296.388 84.211 296.104 84.195 295.823 84.162 C 295.106 84.076 294.57 83.87 294.217 83.545 C 294.026 83.363 293.876 83.141 293.777 82.896 C 293.615 82.513 293.522 82.026 293.5 81.436 C 293.497 81.34 293.495 81.244 293.496 81.148 L 293.496 28.121 C 293.494 27.845 293.51 27.57 293.543 27.297 C 293.619 26.705 293.784 26.245 294.039 25.918 C 294.093 25.848 294.152 25.783 294.217 25.723 C 294.656 25.319 295.376 25.099 296.376 25.064 C 296.475 25.06 296.573 25.059 296.672 25.059 L 308.572 25.059 C 308.856 25.057 309.139 25.073 309.421 25.105 C 310.138 25.192 310.673 25.398 311.027 25.723 C 311.218 25.905 311.368 26.126 311.467 26.372 C 311.629 26.755 311.721 27.241 311.743 27.832 C 311.747 27.928 311.748 28.024 311.748 28.121 Z M 150.067 63.934 L 150.067 39.731 C 149.892 39.623 149.712 39.521 149.529 39.428 C 148.915 39.11 148.074 38.749 147.006 38.344 C 145.581 37.805 143.578 37.536 140.997 37.536 C 139.544 37.523 138.094 37.692 136.683 38.04 C 134.122 38.649 131.851 40.123 130.253 42.215 C 128.988 43.9 128.062 45.814 127.526 47.851 C 126.957 49.912 126.672 52.231 126.672 54.807 C 126.672 60.276 127.673 64.319 129.676 66.937 C 131.629 69.492 134.206 70.801 137.404 70.864 C 137.485 70.865 137.566 70.866 137.647 70.866 C 140.022 70.866 142.048 70.559 143.726 69.944 C 144.463 69.679 145.166 69.329 145.821 68.901 C 146.872 68.219 147.809 67.376 148.597 66.403 C 149.198 65.651 149.693 64.82 150.067 63.934 Z M 61.745 19.629 L 61.398 19.629 C 60.079 21.743 58.878 23.927 57.8 26.173 C 56.763 28.315 55.768 30.613 54.815 33.067 C 54.678 33.42 54.543 33.773 54.409 34.128 C 52.291 39.75 50.462 45.527 48.921 51.457 L 73.991 51.457 C 72.397 45.596 70.527 39.813 68.389 34.128 C 67.513 31.791 66.567 29.481 65.553 27.201 C 64.314 24.428 63.045 21.903 61.745 19.629 Z M 290.838 5.65 C 290.838 5.15 290.992 4.707 291.3 4.322 C 291.383 4.218 291.466 4.114 291.549 4.011 C 291.817 3.679 292.138 3.282 292.514 2.819 C 293.081 2.173 293.664 1.54 294.261 0.921 C 294.916 0.241 295.585 -0.426 296.267 -1.08 C 297.679 -2.434 299.124 -3.754 300.601 -5.037 C 300.787 -5.185 300.978 -5.328 301.173 -5.464 C 301.777 -5.883 302.256 -6.105 302.611 -6.131 C 302.633 -6.133 302.656 -6.134 302.679 -6.134 C 302.821 -6.13 302.961 -6.105 303.094 -6.059 C 303.532 -5.918 304.106 -5.577 304.817 -5.037 C 306.304 -3.755 307.749 -2.426 309.149 -1.05 C 310.413 0.191 311.627 1.481 312.788 2.819 C 312.908 2.958 313.028 3.097 313.148 3.236 C 313.49 3.637 313.784 3.988 314.029 4.291 C 314.029 4.292 314.03 4.292 314.03 4.292 C 314.358 4.697 314.521 5.15 314.521 5.65 C 314.526 6.138 314.351 6.611 314.03 6.979 C 313.942 7.083 313.853 7.188 313.765 7.292 C 313.569 7.526 313.344 7.795 313.092 8.1 C 312.972 8.246 312.851 8.392 312.731 8.538 C 312.181 9.169 311.617 9.787 311.041 10.394 C 310.402 11.067 309.752 11.729 309.091 12.379 C 307.705 13.746 306.281 15.046 304.817 16.279 C 304.692 16.386 304.564 16.492 304.435 16.594 C 304.074 16.88 303.777 17.073 303.546 17.174 C 303.419 17.231 303.287 17.277 303.152 17.313 C 302.999 17.352 302.852 17.373 302.709 17.375 C 302.699 17.376 302.689 17.376 302.679 17.376 C 302.504 17.375 302.331 17.349 302.163 17.297 C 302.053 17.264 301.946 17.223 301.842 17.174 C 301.757 17.134 301.675 17.09 301.594 17.042 C 301.323 16.883 300.963 16.636 300.516 16.301 C 300.505 16.294 300.495 16.286 300.485 16.279 C 298.944 15.046 297.5 13.746 296.153 12.379 C 295.364 11.581 294.592 10.766 293.839 9.934 C 293.389 9.437 292.947 8.933 292.514 8.422 C 292.395 8.276 292.276 8.13 292.156 7.985 C 291.923 7.699 291.715 7.447 291.533 7.227 C 291.455 7.134 291.378 7.042 291.3 6.949 C 290.992 6.583 290.838 6.15 290.838 5.65 Z" vector-effect="non-scaling-stroke" style="fill: rgb(255, 255, 255);"/>
  </g>
</svg>