<?xml version="1.0" encoding="utf-8"?>
<svg version="1.1" x="0px" y="0px" viewBox="0 0 1920 1080" style="enable-background:new 0 0 1920 1080;" xmlns="http://www.w3.org/2000/svg">
  <style type="text/css">
	.st0{fill:#A5A5A5;}
	.st1{fill:#FEFEFE;}
	.st2{fill:#009FDB;}
	.st3{fill:#7F5AF6;}
	.st4{fill:#303030;}
</style>
  <g id="color__x26__Grey" transform="matrix(1.923578, 0, 0, 1.923578, -96.371597, -1171.128662)" style="">
    <g>
      <path class="st2" d="M124,858.41c0-15.41-12.82-27.91-28.64-27.91S66.71,843,66.71,858.41v144.52c0,15.41,12.82,27.91,28.64,27.91 s28.64-12.49,28.64-27.91V858.41z"/>
      <path class="st3" d="M216.04,744.76l-122.13,0.02C78.49,744.78,66,757.6,66,773.42s12.49,28.64,27.91,28.64l122.13-0.39 c19.81,0.06,35.85,16.01,35.85,35.68c0,19.67-16.04,35.62-35.85,35.68l-35.7,0.17c-15.41,0-27.91,12.82-27.91,28.64 c0,15.82,12.49,28.64,27.91,28.64l35.7-0.2c51.64,0,93.51-41.54,93.51-92.77S267.68,744.76,216.04,744.76z"/>
    </g>
    <g id="ackx_00000105408559990918468070000018205629683308167843_">
      <path id="X_00000061472354149867097020000001385497740129825214_" class="st4" d="M1027.27,974.72l-73.67-90.29l70.05-85.52 c6.93-8.31,5.74-20.72-2.65-27.71c-8.39-6.99-20.81-5.92-27.73,2.39l-65.18,79.58l-64.56-79.14c-6.77-8.44-19.16-9.75-27.68-2.91 c-8.52,6.83-9.94,19.21-3.17,27.65l69.85,85.61l-73.38,89.59c-6.93,8.31-5.74,20.72,2.65,27.71c8.39,6.99,20.81,5.92,27.73-2.39 l68.51-83.64l68.38,83.82c6.77,8.44,19.16,9.75,27.68,2.91C1032.62,995.54,1034.04,983.16,1027.27,974.72z"/>
      <path id="K_00000165197280184443496880000011136011639452854205_" class="st4" d="M799.35,973.57l-58.98-53.74l-0.06-0.06 l53.65-50.21c6.82-6.5,6.8-18.35-0.37-25.87c-7.17-7.52-19.06-8.53-25.87-2.03l-73.18,70.41V783.44c0-9.39-9.43-17-21.07-17 s-21.07,7.61-21.07,17v206.24c0,9.39,9.43,17,21.07,17s21.07-7.61,21.07-17v-60.25l79.02,72.5c7.13,6.57,19.17,5.52,26.22-2.13 C806.83,992.15,806.47,980.14,799.35,973.57z"/>
      <path id="C_00000101066193736661473040000009912910384964301954_" class="st4" d="M576.63,869.56c-12.94,0-42.51,4.8-42.51,53.59 s33.26,51.01,41.77,51.01c0,0,11.46,1.48,25.87-7.02c14.41-8.5,17.74-8.13,19.96-8.13s9.98-0.74,13.31,11.83 c3.33,12.57-4.44,17.74-6.28,19.22c-1.85,1.48-20.7,17-57.66,17s-80.57-22.92-80.57-84.27s44.35-86.12,84.27-86.12 c39.92,0,55.44,18.48,56.55,19.96c1.11,1.48,4.24,6.26,3.7,12.2c-0.65,7.12-1.81,16.69-12.2,16.26 c-8.12-0.34-21.66-9.02-26.24-11.09C585.13,868.82,576.63,869.56,576.63,869.56z"/>
      <path id="A_00000137813595042833699580000013284551124701017786_" class="st4" d="M459.83,856.25 c-4.07-4.07-13.31-19.59-53.59-19.59s-72.81,12.2-72.07,31.79c0.64,16.99,12.65,16.29,16.26,15.52 c12.2-2.59,22.5-14.42,53.59-15.15c31.42-0.74,29.57,28.09,29.57,28.09v10.72c-94.62,0-103.86,15.89-104.6,48.05 c-0.63,27.34,22.18,51.38,58.77,51.38s45.83-26.98,45.83-26.98v9.79c0,9.08,9.02,16.45,20.14,16.45 c11.13,0,20.14-7.36,20.14-16.45c0,0,0-55.63,0-84.09C473.88,877.32,463.9,860.32,459.83,856.25z M433.59,942.74 c0,0-2.59,34.37-37.7,34.37c0,0-25.87-0.37-25.87-24.76c0,0-3.7-21.81,38.44-22.18l25.13-0.37V942.74z"/>
    </g>
  </g>
</svg>