<?xml version="1.0" encoding="utf-8"?>
<svg version="1.1" x="0px" y="0px" viewBox="0 0 1920 1080" style="enable-background:new 0 0 1920 1080;" xmlns="http://www.w3.org/2000/svg">
  <style type="text/css">
	.st0{fill:#A5A5A5;}
	.st1{fill:#FEFEFE;}
	.st2{fill:#009FDB;}
	.st3{fill:#7F5AF6;}
	.st4{fill:#303030;}
</style>
  <g id="F._white" transform="matrix(1, 0, 0, 1, -2.833095, -2.439851)">
    <g id="P"/>
    <g id="ackX"/>
  </g>
  <g id="P_color" transform="matrix(1, 0, 0, 1, -2.833095, -2.439851)"/>
  <g id="Color__x26__White" transform="matrix(1.890074, 0, 0, 1.890074, -85.525841, -489.195312)" style="">
    <g id="P_color_00000108302656046624930730000001866766027097987986_">
      <path class="st2" d="M124.89,514.53c0-15.38-12.8-27.85-28.59-27.85s-28.59,12.47-28.59,27.85v144.23 c0,15.38,12.8,27.85,28.59,27.85s28.59-12.47,28.59-27.85V514.53z"/>
      <path class="st3" d="M216.74,401.47l-121.89,0.02c-15.38,0-27.85,12.8-27.85,28.59c0,15.79,12.47,28.59,27.85,28.59l121.89-0.39 c19.77,0.06,35.78,15.98,35.78,35.61c0,19.63-16.01,35.55-35.78,35.61l-35.63,0.17c-15.38,0-27.85,12.8-27.85,28.59 s12.47,28.59,27.85,28.59l35.63-0.2c51.54,0,93.33-41.45,93.33-92.59S268.28,401.47,216.74,401.47z"/>
    </g>
    <g id="ackx">
      <path id="X_00000147914217580385502540000013783984987238245561_" class="st1" d="M1026.73,631.64l-73.52-90.11l69.91-85.35 c6.91-8.29,5.73-20.68-2.64-27.65c-8.37-6.98-20.76-5.91-27.68,2.38l-65.05,79.42l-64.43-78.98c-6.75-8.42-19.12-9.73-27.63-2.91 c-8.5,6.82-9.92,19.17-3.17,27.6l69.71,85.44L829,630.88c-6.91,8.29-5.73,20.68,2.64,27.65c8.37,6.98,20.76,5.91,27.68-2.38 l68.37-83.47l68.24,83.65c6.75,8.42,19.12,9.73,27.63,2.91C1032.07,652.42,1033.49,640.06,1026.73,631.64z"/>
      <path id="K_00000140005956368317764820000001864303803857754275_" class="st1" d="M799.26,630.48l-58.86-53.64l-0.06-0.06 l53.55-50.11c6.8-6.48,6.79-18.31-0.37-25.82s-19.02-8.51-25.82-2.03l-73.04,70.27V440.73c0-9.37-9.41-16.97-21.03-16.97 c-11.61,0-21.03,7.6-21.03,16.97v205.83c0,9.37,9.41,16.97,21.03,16.97c11.61,0,21.03-7.6,21.03-16.97v-60.13l78.87,72.36 c7.11,6.55,19.13,5.51,26.17-2.13S806.37,637.04,799.26,630.48z"/>
      <path id="C_00000036972055535746399960000001961535879490822841_" class="st1" d="M576.99,526.68c-12.91,0-42.42,4.8-42.42,53.49 c0,48.69,33.2,50.9,41.68,50.9c0,0,11.44,1.48,25.82-7.01s17.71-8.12,19.92-8.12s9.96-0.74,13.28,11.8s-4.43,17.71-6.27,19.18 s-20.66,16.97-57.54,16.97c-36.89,0-80.41-22.87-80.41-84.1s44.27-85.95,84.1-85.95s55.33,18.44,56.44,19.92 c1.11,1.48,4.23,6.25,3.69,12.17c-0.65,7.11-1.81,16.66-12.17,16.23c-8.11-0.34-21.62-9-26.19-11.07 C585.47,525.94,576.99,526.68,576.99,526.68z"/>
      <path id="A_00000115481785234555280750000001172909521854922889_" class="st1" d="M460.42,513.4 c-4.06-4.06-13.28-19.55-53.49-19.55s-72.67,12.17-71.93,31.72c0.64,16.96,12.62,16.26,16.23,15.49 c12.17-2.58,22.46-14.39,53.49-15.12c31.35-0.74,29.51,28.03,29.51,28.03v10.7c-94.43,0-103.65,15.86-104.39,47.95 c-0.63,27.29,22.13,51.27,58.65,51.27s45.74-26.93,45.74-26.93v9.78c0,9.07,9,16.41,20.1,16.41c11.1,0,20.1-7.35,20.1-16.41 c0,0,0-55.52,0-83.92C474.44,534.43,464.48,517.46,460.42,513.4z M434.23,599.72c0,0-2.58,34.31-37.63,34.31 c0,0-25.82-0.37-25.82-24.71c0,0-3.69-21.76,38.36-22.13l25.08-0.37V599.72z"/>
    </g>
  </g>
  <g id="color__x26__Grey" transform="matrix(1, 0, 0, 1, -2.833095, -2.439851)">
    <g/>
    <g id="ackx_00000105408559990918468070000018205629683308167843_"/>
  </g>
</svg>