<?xml version="1.0" encoding="utf-8"?>
<svg version="1.1" x="0px" y="0px" viewBox="0 0 1920 1080" style="enable-background:new 0 0 1920 1080;" xmlns="http://www.w3.org/2000/svg">
  <style type="text/css">
	.st0{fill:#A5A5A5;}
	.st1{fill:#FEFEFE;}
	.st2{fill:#009FDB;}
	.st3{fill:#7F5AF6;}
	.st4{fill:#303030;}
</style>
  <g id="F._white" transform="matrix(1, 0, 0, 1, 691.263733, 261.826874)">
    <g id="P"/>
    <g id="ackX"/>
  </g>
  <g id="P_color" transform="matrix(1.356794, 0, 0, 1.356794, -377.547729, -201.915909)" style="">
    <path class="st2" d="M 835.48 469.846 C 835.48 428.146 800.78 394.346 757.98 394.346 C 715.18 394.346 680.48 428.146 680.48 469.846 L 680.48 860.846 C 680.48 902.546 715.18 936.346 757.98 936.346 C 800.78 936.346 835.48 902.546 835.48 860.846 L 835.48 469.846 Z" style="fill: rgb(0, 159, 219);"/>
    <path class="st3" d="M 1084.48 163.346 L 754.05 163.406 C 712.35 163.406 678.55 198.106 678.55 240.906 C 678.55 283.706 712.35 318.406 754.05 318.406 L 1084.48 317.356 C 1138.08 317.526 1181.48 360.676 1181.48 413.896 C 1181.48 467.116 1138.08 510.266 1084.48 510.436 L 987.9 510.896 C 946.2 510.896 912.4 545.596 912.4 588.396 C 912.4 631.196 946.2 665.896 987.9 665.896 L 1084.48 665.356 C 1224.21 665.356 1337.48 552.976 1337.48 414.356 C 1337.48 275.736 1224.21 163.346 1084.48 163.346 Z" style="fill: rgb(127, 90, 246);"/>
  </g>
  <g id="Color__x26__White" transform="matrix(1, 0, 0, 1, 691.263733, 261.826874)">
    <g id="P_color_00000108302656046624930730000001866766027097987986_"/>
    <g id="ackx"/>
  </g>
  <g id="color__x26__Grey" transform="matrix(1, 0, 0, 1, 691.263733, 261.826874)">
    <g/>
    <g id="ackx_00000105408559990918468070000018205629683308167843_"/>
  </g>
</svg>